<svg xmlns="http://www.w3.org/2000/svg" viewBox="0 0 138.342 262.818">
  <path d="M589.006,389.292l-11.1,9.117-1.184-.642,11.3-9.284-9.947-8.172,1.186-.648,9.746,8.014,9.738-8,1.193.637-9.95,8.172,11.3,9.284-1.185.642Zm-26.847,9.117V382.833L550.5,393.978l-11.659-11.145v15.576h-1.223V379.977L550.5,392.29l12.88-12.313v18.432Zm-66.267-18.256,1.1-.569,12.279,16.761,12.281-16.761,1.1.569-13.377,18.256Zm21.06-132.216,70.925-99.213,16.854,33.981L550.5,353.744ZM481.329,135.591l69.171,17.1,30.45-7.529-66.908,93.595Zm111.881,6.543,26.461-6.543-11.586,36.534Z" transform="translate(-481.329 -135.591)"/>
</svg>
