<svg xmlns="http://www.w3.org/2000/svg" viewBox="0 0 22.036 17.908">
  <defs>
    <style>
      .cls-1 {
        fill: #fff;
      }
    </style>
  </defs>
  <path class="cls-1" d="M348.518,2138.166a9.039,9.039,0,0,1-2.6.712,4.534,4.534,0,0,0,1.988-2.5,9.044,9.044,0,0,1-2.871,1.1,4.525,4.525,0,0,0-7.7,4.124,12.835,12.835,0,0,1-9.318-4.724,4.526,4.526,0,0,0,1.4,6.036,4.5,4.5,0,0,1-2.048-.565c0,.019,0,.038,0,.057a4.524,4.524,0,0,0,3.627,4.433,4.528,4.528,0,0,1-2.042.077,4.526,4.526,0,0,0,4.223,3.14,9.13,9.13,0,0,1-6.693,1.872,12.857,12.857,0,0,0,19.793-10.832q0-.294-.013-.585A9.185,9.185,0,0,0,348.518,2138.166Z" transform="translate(-326.482 -2136.046)"/>
</svg>
